<svg width="23" height="23" viewBox="0 0 23 23" fill="none" xmlns="http://www.w3.org/2000/svg">
<path fill-rule="evenodd" clip-rule="evenodd" d="M8.35776 17.3882C8.02043 17.3882 7.70801 17.2109 7.53455 16.9205C6.6548 15.4447 5.52301 14.1174 4.17272 12.976C3.7683 12.6339 3.71847 12.0292 4.05964 11.6248C4.40176 11.2194 5.00551 11.1696 5.40993 11.5117C6.50626 12.4384 7.47514 13.4763 8.30122 14.609C9.86998 12.0723 12.9539 8.0502 17.7906 5.70707C18.2669 5.47803 18.84 5.67449 19.0709 6.15174C19.3009 6.62803 19.1026 7.20112 18.6263 7.43207C13.2826 10.0205 10.2562 14.9013 9.20397 16.8803C9.04105 17.185 8.72672 17.3796 8.38076 17.3882H8.35776Z" fill="#00C5AB"/>
</svg>
